<svg xmlns="http://www.w3.org/2000/svg" id="Layer_2" data-name="Layer 2" viewBox="0 0 153.75 153.99"><defs><style>      .cls-1 {        fill: #fff;      }      .cls-2 {        fill: #6e8097;      }    </style></defs><g id="Layer_2-2" data-name="Layer 2"><g><path class="cls-2" d="m97.56,129.19c1.2,4.22,2.36,8.27,3.54,12.41,3.34,0,6.64,0,9.94,0,2.17,0,3.02.83,3.03,2.96.01,2.22.02,4.44,0,6.67-.02,1.85-.91,2.76-2.76,2.76-22.94,0-45.87,0-68.81,0-1.93,0-2.79-.9-2.8-2.87-.02-2.22-.02-4.44,0-6.67.01-1.96.87-2.83,2.83-2.84,3.35-.02,6.71,0,10.13,0,1.18-4.12,2.33-8.16,3.55-12.41-.76,0-1.36,0-1.96,0-14.98,0-29.96,0-44.95,0C3.59,129.18,0,125.6,0,119.93,0,88.87,0,57.81,0,26.76c0-5.58,3.61-9.19,9.2-9.19,45.1,0,90.2,0,135.3,0,5.68,0,9.25,3.59,9.25,9.3,0,31,0,62.01,0,93.01,0,5.71-3.57,9.31-9.24,9.31-14.98,0-29.96,0-44.95,0-.61,0-1.22,0-2,0ZM4.95,109.26h143.85c0-.65,0-1.21,0-1.77,0-26.66,0-53.32,0-79.97,0-3.71-1.29-4.99-5.04-4.99-44.57,0-89.15,0-133.72,0-3.84,0-5.08,1.25-5.08,5.1,0,26.61,0,53.21,0,79.82,0,.56,0,1.13,0,1.81Zm0,5.11c0,1.69,0,3.28,0,4.87,0,3.73,1.29,5.01,5.03,5.01,44.62,0,89.24,0,133.86,0,.52,0,1.04.02,1.55-.04,1.83-.24,3.22-1.49,3.35-3.32.14-2.14.03-4.3.03-6.51H4.95Zm90.91,27.15c-1.2-4.19-2.37-8.26-3.52-12.28h-30.93c-1.16,4.07-2.32,8.12-3.51,12.28h37.96Zm-51.16,7.42h64.36v-2.3H44.7v2.3Z"></path><path class="cls-2" d="m79.83.21c9.76,0,19.52-.01,29.28,0,3.85,0,7.07,2.87,7.42,6.53.38,3.96-2.12,7.43-5.94,8.23-.55.11-1.13.1-1.7.11-19.52,0-39.04.01-58.56-.02-.84,0-1.74-.21-2.5-.57-2.93-1.39-5.81-2.9-8.73-4.32-1.09-.54-1.92-1.21-1.9-2.55.02-1.34.86-1.98,1.96-2.51,3.29-1.59,6.42-3.83,9.89-4.68,3.32-.81,6.98-.22,10.49-.22,6.76,0,13.53,0,20.29,0Zm-22.73,9.92c.58,0,1.03,0,1.49,0,16.53,0,33.06,0,49.59,0,.31,0,.62.02.93-.02,1.44-.15,2.49-1.22,2.47-2.51-.02-1.3-1.07-2.31-2.54-2.44-.36-.03-.72-.01-1.08-.01-16.43,0-32.85,0-49.28,0-.5,0-1,0-1.57,0v4.97Zm-11.46-2.48c2.12.9,3.79,2.83,6.36,2.41v-4.85c-2.6-.35-4.28,1.5-6.36,2.44Z"></path><path class="cls-1" d="m4.95,109.26c0-.69,0-1.25,0-1.81,0-26.61,0-53.21,0-79.82,0-3.85,1.25-5.1,5.08-5.1,44.57,0,89.15,0,133.72,0,3.75,0,5.04,1.28,5.04,4.99,0,26.66,0,53.32,0,79.97,0,.56,0,1.12,0,1.77H4.95Zm44.44-27.45c-1.34,2.69-2.79,5.58-4.21,8.49-1.23,2.51-.2,4.16,2.59,4.16,7.85,0,15.7,0,23.54,0,2.78,0,3.79-1.66,2.54-4.19-1.91-3.88-3.83-7.77-5.81-11.62-.48-.93-.45-1.46.34-2.23,6.28-6.16,7.8-15.31,3.92-23.06-3.91-7.81-12.24-12.05-20.96-10.68-7.84,1.23-14.1,7.04-16.04,14.88-1.89,7.64.98,15.9,7.33,20.46,2.06,1.48,4.45,2.51,6.78,3.8Zm55.98,8.86c1.64-.11,2.38-1.02,2.79-2.4,2.66-9.1,5.34-18.18,8.01-27.28.67-2.28.09-3.35-2.23-4.03-9.08-2.69-18.17-5.36-27.26-8.02-2.1-.62-3.24.01-3.86,2.11-2.68,9.09-5.35,18.18-8.02,27.27-.67,2.29-.06,3.37,2.22,4.04,7.26,2.14,14.52,4.28,21.78,6.42,2.22.65,4.45,1.28,6.57,1.89Zm23.6-50.93c0,1.55,0,3.09,0,4.64.01,2.07.85,2.94,2.87,2.95,3.04.02,6.08.02,9.12,0,1.96,0,2.86-.88,2.87-2.8.02-3.09.02-6.18,0-9.28-.01-1.87-.89-2.77-2.72-2.79-3.14-.02-6.29-.02-9.43,0-1.83.01-2.69.92-2.71,2.79-.02,1.49,0,2.99,0,4.48Zm-104.17.23c0-1.55.01-3.09,0-4.64-.02-1.96-.88-2.86-2.79-2.87-3.09-.02-6.18-.02-9.27,0-1.87.01-2.78.88-2.79,2.71-.02,3.14-.02,6.29,0,9.43.01,1.77.9,2.7,2.63,2.71,3.19.03,6.39.03,9.58,0,1.73-.02,2.61-.95,2.64-2.71.02-1.55,0-3.09,0-4.64Zm-14.87,17.2c0,1.55-.01,3.09,0,4.64.02,1.97.87,2.87,2.79,2.88,3.09.02,6.18.02,9.27,0,1.87-.01,2.78-.89,2.8-2.71.02-3.14.02-6.29,0-9.43-.01-1.77-.9-2.7-2.63-2.72-3.19-.03-6.39-.03-9.58,0-1.74.02-2.62.93-2.64,2.7-.02,1.55,0,3.09,0,4.64Zm126.4,7.52c1.55,0,3.09.01,4.64,0,1.96-.02,2.86-.88,2.87-2.8.02-3.09.02-6.18,0-9.28-.01-1.87-.89-2.77-2.72-2.79-3.14-.02-6.29-.02-9.43,0-1.77.01-2.69.9-2.71,2.64-.03,3.2-.03,6.39,0,9.59.02,1.73.94,2.61,2.71,2.64,1.55.02,3.09,0,4.64,0Zm-111.53,10c0-1.55.01-3.09,0-4.64-.02-1.96-.88-2.86-2.8-2.87-3.09-.02-6.18-.02-9.27,0-1.87.01-2.77.88-2.79,2.71-.02,3.14-.02,6.29,0,9.43.01,1.77.91,2.7,2.63,2.71,3.19.03,6.39.03,9.58,0,1.73-.02,2.61-.95,2.64-2.71.02-1.55,0-3.09,0-4.64Zm119.04,0c0-1.55.01-3.09,0-4.64-.02-1.97-.87-2.86-2.79-2.87-3.09-.02-6.18-.02-9.27,0-1.87.01-2.78.88-2.79,2.71-.02,3.14-.02,6.29,0,9.43.01,1.77.9,2.7,2.63,2.71,3.19.03,6.39.03,9.58,0,1.73-.02,2.61-.95,2.64-2.71.02-1.55,0-3.09,0-4.64Zm-126.35,24.72c1.6,0,3.2.03,4.79,0,1.49-.04,2.47-.93,2.49-2.38.05-3.35.05-6.7,0-10.05-.02-1.47-.97-2.4-2.45-2.42-3.3-.04-6.6-.04-9.89,0-1.56.02-2.48.95-2.5,2.53-.03,3.25-.03,6.49,0,9.74.02,1.65.94,2.55,2.61,2.58,1.65.03,3.3,0,4.95,0Zm118.91,0c1.49,0,2.99,0,4.48,0,2.06-.02,2.94-.86,2.95-2.88.02-3.04.02-6.08,0-9.12,0-1.96-.88-2.86-2.8-2.87-3.09-.02-6.18-.02-9.27,0-1.87.01-2.77.88-2.79,2.72-.02,3.14-.02,6.29,0,9.43.01,1.83.92,2.69,2.79,2.72,1.55.02,3.09,0,4.64,0Z"></path><path class="cls-1" d="m4.95,114.37h143.81c0,2.21.11,4.37-.03,6.51-.12,1.83-1.51,3.08-3.35,3.32-.51.07-1.03.04-1.55.04-44.62,0-89.24,0-133.86,0-3.74,0-5.02-1.28-5.03-5.01,0-1.59,0-3.18,0-4.87Z"></path><path class="cls-1" d="m95.86,141.52h-37.96c1.19-4.16,2.34-8.21,3.51-12.28h30.93c1.15,4.02,2.32,8.09,3.52,12.28Z"></path><path class="cls-1" d="m44.7,148.94v-2.3h64.36v2.3H44.7Z"></path><path class="cls-1" d="m57.1,10.13v-4.97c.57,0,1.07,0,1.57,0,16.43,0,32.85,0,49.28,0,.36,0,.73-.02,1.08.01,1.47.12,2.51,1.14,2.54,2.44.02,1.28-1.03,2.36-2.47,2.51-.31.03-.62.02-.93.02-16.53,0-33.06,0-49.59,0-.46,0-.91,0-1.49,0Z"></path><path class="cls-1" d="m45.64,7.65c2.08-.94,3.76-2.79,6.36-2.44v4.85c-2.57.42-4.24-1.51-6.36-2.41Z"></path><path class="cls-2" d="m49.39,81.81c-2.33-1.28-4.71-2.32-6.78-3.8-6.35-4.56-9.22-12.82-7.33-20.46,1.94-7.84,8.2-13.64,16.04-14.88,8.72-1.37,17.05,2.87,20.96,10.68,3.89,7.76,2.37,16.9-3.92,23.06-.79.77-.82,1.3-.34,2.23,1.99,3.85,3.9,7.73,5.81,11.62,1.25,2.54.24,4.19-2.54,4.19-7.85,0-15.7,0-23.54,0-2.79,0-3.82-1.65-2.59-4.16,1.42-2.9,2.88-5.8,4.21-8.49Zm15.64-9.25c4.72-4.23,5.7-12.05,2.38-17.79-3.56-6.14-10.9-8.87-17.63-6.6-6.55,2.21-10.72,8.67-10,15.38.75,6.96,6.2,12.71,12.19,13.12,1.69-3.38,3.39-6.78,5.09-10.19.52-1.04,1.21-1.78,2.48-1.77,1.26,0,1.95.76,2.46,1.8.97,1.98,1.97,3.95,3.03,6.06Zm-1.66,7.94c-2.79.55-5.3,1.04-7.8,1.56-.32.07-.76.2-.88.44-1.17,2.26-2.29,4.55-3.47,6.94h16.62c-1.58-3.16-3.08-6.17-4.46-8.94Zm-5.87-3.66c1.36-.46,2.33-.79,3.45-1.17-.5-1-.9-1.79-1.44-2.85-.71,1.42-1.27,2.53-2.02,4.02Z"></path><path class="cls-2" d="m105.37,90.67c-2.11-.61-4.34-1.24-6.57-1.89-7.26-2.13-14.52-4.28-21.78-6.42-2.28-.67-2.89-1.75-2.22-4.04,2.66-9.09,5.34-18.18,8.02-27.27.62-2.09,1.75-2.72,3.86-2.11,9.09,2.66,18.18,5.34,27.26,8.02,2.32.69,2.9,1.75,2.23,4.03-2.66,9.09-5.35,18.18-8.01,27.28-.4,1.38-1.15,2.29-2.79,2.4Zm-18.27-36.38c-2.35,8.01-4.64,15.83-6.97,23.75,8.02,2.35,15.8,4.63,23.74,6.96,2.34-7.99,4.64-15.81,6.96-23.74-7.98-2.35-15.73-4.62-23.73-6.98Z"></path><path class="cls-2" d="m128.96,39.74c0-1.49-.01-2.99,0-4.48.02-1.87.88-2.78,2.71-2.79,3.14-.02,6.29-.02,9.43,0,1.83.01,2.71.92,2.72,2.79.02,3.09.02,6.18,0,9.28-.01,1.92-.91,2.79-2.87,2.8-3.04.02-6.08.02-9.12,0-2.02-.01-2.86-.88-2.87-2.95-.01-1.55,0-3.09,0-4.64Zm5.05-2.26v4.78h4.79v-4.78h-4.79Z"></path><path class="cls-2" d="m24.79,39.97c0,1.55.02,3.09,0,4.64-.03,1.77-.91,2.7-2.64,2.71-3.19.03-6.39.03-9.58,0-1.73-.02-2.62-.95-2.63-2.71-.02-3.14-.02-6.29,0-9.43.01-1.83.92-2.7,2.79-2.71,3.09-.02,6.18-.02,9.27,0,1.92.01,2.78.9,2.79,2.87.01,1.55,0,3.09,0,4.64Zm-5.01-2.49h-4.82v4.8h4.82v-4.8Z"></path><path class="cls-2" d="m9.92,57.17c0-1.55-.02-3.09,0-4.64.03-1.77.91-2.69,2.64-2.7,3.19-.03,6.39-.03,9.58,0,1.73.02,2.62.94,2.63,2.72.02,3.14.02,6.29,0,9.43-.01,1.82-.93,2.7-2.8,2.71-3.09.02-6.18.02-9.27,0-1.91-.01-2.77-.91-2.79-2.88-.01-1.55,0-3.09,0-4.64Zm9.84-2.31h-4.79v4.76h4.79v-4.76Z"></path><path class="cls-2" d="m136.32,64.69c-1.55,0-3.09.02-4.64,0-1.77-.03-2.7-.91-2.71-2.64-.03-3.2-.03-6.39,0-9.59.02-1.74.94-2.62,2.71-2.64,3.14-.02,6.29-.02,9.43,0,1.83.01,2.71.92,2.72,2.79.02,3.09.02,6.18,0,9.28-.01,1.92-.91,2.78-2.87,2.8-1.55.01-3.09,0-4.64,0Zm2.45-5.02v-4.78h-4.77v4.78h4.77Z"></path><path class="cls-2" d="m24.79,74.69c0,1.55.02,3.09,0,4.64-.03,1.77-.91,2.7-2.64,2.71-3.19.03-6.39.03-9.58,0-1.73-.02-2.62-.95-2.63-2.71-.02-3.14-.02-6.29,0-9.43.01-1.83.92-2.7,2.79-2.71,3.09-.02,6.18-.02,9.27,0,1.92.01,2.78.9,2.8,2.87.01,1.55,0,3.09,0,4.64Zm-5.02-2.48h-4.81v4.78h4.81v-4.78Z"></path><path class="cls-2" d="m143.83,74.7c0,1.55.02,3.09,0,4.64-.03,1.77-.91,2.69-2.64,2.71-3.19.03-6.39.03-9.58,0-1.73-.02-2.62-.95-2.63-2.71-.02-3.14-.02-6.29,0-9.43.01-1.83.92-2.7,2.79-2.71,3.09-.02,6.18-.02,9.27,0,1.92.01,2.77.91,2.79,2.87.01,1.55,0,3.09,0,4.64Zm-5.04,2.33v-4.79h-4.76v4.79h4.76Z"></path><path class="cls-2" d="m17.49,99.42c-1.65,0-3.3.03-4.95,0-1.67-.03-2.59-.93-2.61-2.58-.03-3.25-.03-6.49,0-9.74.02-1.58.94-2.51,2.5-2.53,3.3-.04,6.6-.04,9.89,0,1.48.02,2.43.95,2.45,2.42.04,3.35.05,6.7,0,10.05-.02,1.45-1,2.34-2.49,2.38-1.6.04-3.19,0-4.79,0Zm2.29-9.84h-4.81v4.78h4.81v-4.78Z"></path><path class="cls-2" d="m136.4,99.42c-1.55,0-3.09.02-4.64,0-1.87-.02-2.78-.89-2.79-2.72-.02-3.14-.02-6.29,0-9.43.01-1.83.92-2.7,2.79-2.72,3.09-.02,6.18-.02,9.27,0,1.92.01,2.79.9,2.8,2.87.02,3.04.02,6.08,0,9.12-.01,2.02-.88,2.86-2.95,2.88-1.49.01-2.99,0-4.48,0Zm2.39-5.03v-4.79h-4.76v4.79h4.76Z"></path><path class="cls-1" d="m65.02,72.56c-1.06-2.11-2.06-4.08-3.03-6.06-.51-1.04-1.19-1.79-2.46-1.8-1.26,0-1.96.73-2.48,1.77-1.7,3.41-3.4,6.81-5.09,10.19-5.99-.4-11.44-6.15-12.19-13.12-.72-6.71,3.44-13.17,10-15.38,6.73-2.27,14.07.46,17.63,6.6,3.33,5.74,2.35,13.56-2.38,17.79Z"></path><path class="cls-1" d="m63.37,80.5c1.38,2.77,2.89,5.78,4.46,8.94h-16.62c1.18-2.39,2.3-4.68,3.47-6.94.12-.24.56-.37.88-.44,2.5-.52,5-1,7.8-1.56Z"></path><path class="cls-1" d="m57.5,76.84c.75-1.49,1.3-2.6,2.02-4.02.53,1.06.93,1.85,1.44,2.85-1.12.38-2.09.71-3.45,1.17Z"></path><path class="cls-1" d="m87.09,54.29c8,2.35,15.75,4.63,23.73,6.98-2.32,7.92-4.62,15.74-6.96,23.74-7.94-2.33-15.72-4.61-23.74-6.96,2.32-7.92,4.62-15.74,6.97-23.75Z"></path><path class="cls-1" d="m134.02,37.48h4.79v4.78h-4.79v-4.78Z"></path><path class="cls-1" d="m19.78,37.48v4.8h-4.82v-4.8h4.82Z"></path><path class="cls-1" d="m19.76,54.86v4.76h-4.79v-4.76h4.79Z"></path><path class="cls-1" d="m138.77,59.67h-4.77v-4.78h4.77v4.78Z"></path><path class="cls-1" d="m19.77,72.22v4.78h-4.81v-4.78h4.81Z"></path><path class="cls-1" d="m138.79,77.03h-4.76v-4.79h4.76v4.79Z"></path><path class="cls-1" d="m19.77,89.58v4.78h-4.81v-4.78h4.81Z"></path><path class="cls-1" d="m138.79,94.39h-4.76v-4.79h4.76v4.79Z"></path></g></g></svg>